# xmcd CD database file
#
# Track frame offsets:
#	150
#	10208
#	21734
#	31678
#	41672
#	53057
#	64522
#	76473
#	88280
#	98645
#	109978
#	122308
#	134552
#	147011
#	157762
#	170028
#	183406
#	193612
#	206114
#	217637
#	228830
#	241944
#	251375
#	262360
#	272950
#
# Disc length: 3774 seconds
#
# Revision: 0
# Processed by: cddbd v1.5.1PL0 Copyright (c) Steve Scherf et al.
# Submitted via: CDex 1.51
#
DISCID=5d0ebc19
DTITLE=Lloyd Price - The Chronological Lloyd Price 1952-1953
DYEAR=2004
DGENRE=Blues
TTITLE0=Barnyard Rock
TTITLE1=Lawdy Miss Clawdy
TTITLE2=Mailman Blues
TTITLE3=Chee Koo Baby
TTITLE4=Oo-Ee Baby
TTITLE5=Mailman Boogie
TTITLE6=Oooh Oooh Oooh
TTITLE7=Restless Heart
TTITLE8=Tell Me, Pretty Baby
TTITLE9=So Long
TTITLE10=They Say
TTITLE11=I'm Too Young
TTITLE12=Laurelle
TTITLE13=Operator
TTITLE14=Ain't It A Shame
TTITLE15=What's The Matter Now
TTITLE16=Jimmie Lee
TTITLE17=If Crying Was Murder
TTITLE18=Baby Don't Turn Your Back On Me
TTITLE19=Walkin' The Track
TTITLE20=Lloyd's Lament (Old Echo Song)
TTITLE21=Where You At
TTITLE22=Too Late For Tears
TTITLE23=Lord, Lord, Amen
TTITLE24=Carry Me Home
EXTD=YEAR: 2004
EXTT0=
EXTT1=
EXTT2=
EXTT3=
EXTT4=
EXTT5=
EXTT6=
EXTT7=
EXTT8=
EXTT9=
EXTT10=
EXTT11=
EXTT12=
EXTT13=
EXTT14=
EXTT15=
EXTT16=
EXTT17=
EXTT18=
EXTT19=
EXTT20=
EXTT21=
EXTT22=
EXTT23=
EXTT24=
PLAYORDER=
